<svg width="301" height="177" viewBox="0 0 301 177" fill="none" xmlns="http://www.w3.org/2000/svg">
<path d="M7.86933 95.3715C5.32135 95.3715 3.51095 94.0305 2.43812 91.3484C1.43233 88.6663 0.929443 84.375 0.929443 78.4744C0.929443 69.7576 2.16991 61.4767 4.65083 53.6316C5.2543 51.6871 6.22656 50.279 7.5676 49.4073C8.97569 48.4686 10.9202 47.9992 13.4011 47.9992C14.7422 47.9992 15.6809 48.1669 16.2173 48.5021C16.7537 48.8374 17.0219 49.4744 17.0219 50.4131C17.0219 51.4859 16.5191 53.8998 15.5133 57.6547C14.8427 60.3368 14.3063 62.6836 13.904 64.6952C13.5017 66.7068 13.1664 69.1877 12.8982 72.138C15.111 66.3715 17.5919 61.6778 20.341 58.057C23.0902 54.4362 25.7722 51.8547 28.3873 50.3125C31.0694 48.7703 33.5168 47.9992 35.7295 47.9992C40.0879 47.9992 42.2671 50.1784 42.2671 54.5368C42.2671 55.4085 41.9653 57.5206 41.3618 60.8732C40.8254 63.5553 40.5572 65.2316 40.5572 65.9021C40.5572 68.249 41.3954 69.4224 43.0717 69.4224C44.9491 69.4224 47.363 67.9472 50.3133 64.9969C51.185 64.1253 52.0902 63.6894 53.0289 63.6894C53.9006 63.6894 54.5711 64.0917 55.0405 64.8963C55.5769 65.6339 55.8451 66.6397 55.8451 67.9137C55.8451 70.3946 55.1746 72.3391 53.8335 73.7472C51.9561 75.6917 49.7434 77.368 47.1954 78.7761C44.7145 80.1172 42.0659 80.7877 39.2497 80.7877C35.6959 80.7877 32.9803 79.8825 31.1029 78.0721C29.2925 76.2617 28.3873 73.8143 28.3873 70.7299C28.3873 69.7241 28.4878 68.7183 28.689 67.7125C28.8231 66.3715 28.8902 65.4663 28.8902 64.9969C28.8902 63.9241 28.5214 63.3877 27.7838 63.3877C26.778 63.3877 25.437 64.5276 23.7607 66.8073C22.1514 69.0201 20.5422 71.9703 18.9329 75.6582C17.3237 79.3461 16.0162 83.2351 15.0104 87.3253C14.2728 90.4767 13.4011 92.6224 12.3953 93.7623C11.4566 94.8351 9.94795 95.3715 7.86933 95.3715Z" fill="#808080"/>
<path d="M59.6749 41.3611C56.8587 41.3611 54.7466 40.7241 53.3385 39.4501C51.9304 38.109 51.2264 36.2651 51.2264 33.9183C51.2264 31.5715 52.1316 29.627 53.942 28.0848C55.8194 26.4755 58.1327 25.6709 60.8819 25.6709C63.3628 25.6709 65.3743 26.2744 66.9165 27.4813C68.4587 28.6882 69.2298 30.3981 69.2298 32.6108C69.2298 35.2929 68.3582 37.4385 66.6148 39.0478C64.8715 40.59 62.5582 41.3611 59.6749 41.3611ZM58.8703 95.3715C54.5119 95.3715 51.3269 93.8293 49.3154 90.7449C47.3709 87.6605 46.3986 83.5704 46.3986 78.4744C46.3986 75.4571 46.7674 71.6016 47.505 66.9079C48.3096 62.1472 49.3154 57.7218 50.5223 53.6316C51.1258 51.4859 51.9304 50.0108 52.9362 49.2062C53.942 48.4015 55.5512 47.9992 57.7639 47.9992C61.1836 47.9992 62.8934 49.1391 62.8934 51.4189C62.8934 53.0952 62.2564 56.9842 60.9824 63.0859C59.3732 70.4617 58.5686 75.457 58.5686 78.0721C58.5686 80.0836 58.8368 81.6258 59.3732 82.6987C59.9096 83.7715 60.8148 84.3079 62.0888 84.3079C63.2957 84.3079 64.8044 83.4698 66.6148 81.7935C68.4252 80.1172 70.8391 77.4686 73.8564 73.8478C74.6611 72.9091 75.5663 72.4397 76.572 72.4397C77.4437 72.4397 78.1142 72.842 78.5836 73.6466C79.12 74.4513 79.3882 75.5576 79.3882 76.9657C79.3882 79.6478 78.7512 81.7264 77.4772 83.2016C70.8391 91.3149 64.6368 95.3715 58.8703 95.3715Z" fill="#808080"/>
<path d="M119.475 72.4397C120.347 72.4397 121.017 72.842 121.486 73.6466C122.023 74.4513 122.291 75.5576 122.291 76.9657C122.291 79.4467 121.654 81.5253 120.38 83.2016C117.229 87.2917 113.306 90.5102 108.612 92.8571C103.986 95.2039 98.7558 96.3773 92.9223 96.3773C88.3627 96.3773 84.4067 95.7068 81.0541 94.3657C77.7015 92.9576 75.1199 91.0802 73.3095 88.7334C71.5662 86.3195 70.6945 83.6374 70.6945 80.6871C70.6945 76.2617 72.4714 72.3391 76.0252 68.9195C79.5789 65.4998 84.6749 62.2143 91.313 59.0628L74.8182 59.4651C73.3431 59.5322 72.2032 59.0293 71.3986 57.9565C70.661 56.8166 70.2922 55.4755 70.2922 53.9333C70.2922 52.3241 70.661 50.916 71.3986 49.7091C72.2032 48.4351 73.276 47.7981 74.6171 47.7981C77.7015 47.7981 81.8252 48.0327 86.9882 48.5021C88.061 48.5692 90.0055 48.7033 92.8217 48.9044C95.7049 49.1056 98.1188 49.2062 100.063 49.2062C100.734 49.2062 102.008 48.938 103.885 48.4015C104.221 48.3345 104.858 48.1669 105.796 47.8986C106.802 47.6304 107.64 47.4963 108.311 47.4963C109.384 47.4963 110.255 47.9657 110.926 48.9044C111.663 49.8432 112.032 51.2848 112.032 53.2293C112.032 55.375 111.529 57.0513 110.523 58.2582C109.518 59.4651 107.942 60.538 105.796 61.4767C99.6945 64.0917 94.6321 66.9079 90.609 69.9253C86.5859 72.8755 84.5743 75.8258 84.5743 78.7761C84.5743 80.6536 85.446 82.1958 87.1893 83.4027C88.9327 84.6097 91.5142 85.2131 94.9338 85.2131C98.6888 85.2131 102.477 84.2744 106.299 82.3969C110.188 80.5195 113.675 77.6698 116.759 73.8478C117.564 72.9091 118.469 72.4397 119.475 72.4397Z" fill="#808080"/>
<path d="M164.264 72.4397C165.135 72.4397 165.806 72.842 166.275 73.6466C166.812 74.4513 167.08 75.5576 167.08 76.9657C167.08 79.4467 166.443 81.5253 165.169 83.2016C162.017 87.2917 158.095 90.5102 153.401 92.8571C148.775 95.2039 143.545 96.3773 137.711 96.3773C133.151 96.3773 129.195 95.7068 125.843 94.3657C122.49 92.9576 119.909 91.0802 118.098 88.7334C116.355 86.3195 115.483 83.6374 115.483 80.6871C115.483 76.2617 117.26 72.3391 120.814 68.9195C124.368 65.4998 129.464 62.2143 136.102 59.0628L119.607 59.4651C118.132 59.5322 116.992 59.0293 116.187 57.9565C115.45 56.8166 115.081 55.4755 115.081 53.9333C115.081 52.3241 115.45 50.916 116.187 49.7091C116.992 48.4351 118.065 47.7981 119.406 47.7981C122.49 47.7981 126.614 48.0327 131.777 48.5021C132.85 48.5692 134.794 48.7033 137.61 48.9044C140.494 49.1056 142.908 49.2062 144.852 49.2062C145.523 49.2062 146.797 48.938 148.674 48.4015C149.009 48.3345 149.646 48.1669 150.585 47.8986C151.591 47.6304 152.429 47.4963 153.099 47.4963C154.172 47.4963 155.044 47.9657 155.714 48.9044C156.452 49.8432 156.821 51.2848 156.821 53.2293C156.821 55.375 156.318 57.0513 155.312 58.2582C154.306 59.4651 152.731 60.538 150.585 61.4767C144.483 64.0917 139.421 66.9079 135.398 69.9253C131.375 72.8755 129.363 75.8258 129.363 78.7761C129.363 80.6536 130.235 82.1958 131.978 83.4027C133.721 84.6097 136.303 85.2131 139.723 85.2131C143.477 85.2131 147.266 84.2744 151.088 82.3969C154.977 80.5195 158.464 77.6698 161.548 73.8478C162.353 72.9091 163.258 72.4397 164.264 72.4397Z" fill="#808080"/>
<path d="M216.998 72.4397C217.87 72.4397 218.54 72.842 219.01 73.6466C219.546 74.4513 219.814 75.5576 219.814 76.9657C219.814 79.6478 219.177 81.7264 217.903 83.2016C214.886 86.8894 211.835 89.8397 208.751 92.0524C205.666 94.2652 202.012 95.3715 197.788 95.3715C192.625 95.3715 188.467 93.8964 185.316 90.9461C182.164 87.9958 180.589 84.0732 180.589 79.1784C180.589 76.5634 181.93 74.6859 184.612 73.5461C187.562 72.2721 189.674 70.931 190.948 69.5229C192.222 68.0478 192.859 66.2709 192.859 64.1923C192.859 62.9854 192.591 62.0802 192.055 61.4767C191.585 60.8732 190.982 60.5715 190.244 60.5715C188.434 60.5715 186.422 61.879 184.209 64.494C182.064 67.1091 180.052 70.4952 178.175 74.6524C176.297 78.7426 174.822 82.9669 173.749 87.3253C173.012 90.4767 172.14 92.6224 171.134 93.7623C170.196 94.8351 168.687 95.3715 166.608 95.3715C164.53 95.3715 162.988 94.6339 161.982 93.1588C161.043 91.6166 160.406 89.2698 160.071 86.1183C159.735 82.9669 159.568 78.3403 159.568 72.2386C159.568 61.9125 160.607 51.1507 162.686 39.953C164.831 28.7553 167.949 19.368 172.04 11.7911C176.197 4.14716 181.159 0.325195 186.925 0.325195C190.01 0.325195 192.49 1.66624 194.368 4.34832C196.312 6.96335 197.285 10.383 197.285 14.6073C197.285 21.3796 195.307 28.42 191.351 35.7287C187.394 42.9703 180.957 51.4524 172.04 61.175C171.838 64.6617 171.738 68.249 171.738 71.9368C174.956 63.5553 178.644 57.4871 182.801 53.7322C186.959 49.9102 190.848 47.9992 194.468 47.9992C197.821 47.9992 200.503 49.1391 202.515 51.4189C204.593 53.6987 205.633 56.5148 205.633 59.8674C205.633 63.5553 204.694 66.9414 202.816 70.0258C200.939 73.1102 197.72 75.8594 193.161 78.2732C193.429 80.0836 194.234 81.5588 195.575 82.6987C196.983 83.7715 198.659 84.3079 200.604 84.3079C202.682 84.3079 204.694 83.5033 206.638 81.8941C208.583 80.2848 211.131 77.6027 214.282 73.8478C215.087 72.9091 215.992 72.4397 216.998 72.4397ZM184.813 10.2824C183.606 10.2824 182.265 12.0258 180.79 15.5125C179.315 18.9321 177.873 23.5923 176.465 29.4929C175.124 35.3264 174.018 41.6963 173.146 48.6027C177.303 43.7079 180.723 38.3772 183.405 32.6108C186.154 26.8443 187.529 21.6142 187.529 16.9206C187.529 14.7749 187.294 13.1321 186.825 11.9923C186.355 10.8524 185.685 10.2824 184.813 10.2824Z" fill="#808080"/>
<path d="M224.882 41.3611C222.066 41.3611 219.954 40.7241 218.546 39.4501C217.138 38.109 216.434 36.2651 216.434 33.9183C216.434 31.5715 217.339 29.627 219.149 28.0848C221.027 26.4755 223.34 25.6709 226.089 25.6709C228.57 25.6709 230.582 26.2744 232.124 27.4813C233.666 28.6882 234.437 30.3981 234.437 32.6108C234.437 35.2929 233.566 37.4385 231.822 39.0478C230.079 40.59 227.766 41.3611 224.882 41.3611ZM224.078 95.3715C219.719 95.3715 216.534 93.8293 214.523 90.7449C212.578 87.6605 211.606 83.5704 211.606 78.4744C211.606 75.4571 211.975 71.6016 212.712 66.9079C213.517 62.1472 214.523 57.7218 215.73 53.6316C216.333 51.4859 217.138 50.0108 218.144 49.2062C219.149 48.4015 220.759 47.9992 222.971 47.9992C226.391 47.9992 228.101 49.1391 228.101 51.4189C228.101 53.0952 227.464 56.9842 226.19 63.0859C224.581 70.4617 223.776 75.457 223.776 78.0721C223.776 80.0836 224.044 81.6258 224.581 82.6987C225.117 83.7715 226.022 84.3079 227.296 84.3079C228.503 84.3079 230.012 83.4698 231.822 81.7935C233.633 80.1172 236.047 77.4686 239.064 73.8478C239.868 72.9091 240.774 72.4397 241.779 72.4397C242.651 72.4397 243.322 72.842 243.791 73.6466C244.327 74.4513 244.596 75.5576 244.596 76.9657C244.596 79.6478 243.959 81.7264 242.685 83.2016C236.047 91.3149 229.844 95.3715 224.078 95.3715Z" fill="#808080"/>
<path d="M247.22 41.3611C244.404 41.3611 242.292 40.7241 240.884 39.4501C239.476 38.109 238.772 36.2651 238.772 33.9183C238.772 31.5715 239.677 29.627 241.487 28.0848C243.365 26.4755 245.678 25.6709 248.427 25.6709C250.908 25.6709 252.92 26.2744 254.462 27.4813C256.004 28.6882 256.775 30.3981 256.775 32.6108C256.775 35.2929 255.903 37.4385 254.16 39.0478C252.417 40.59 250.103 41.3611 247.22 41.3611ZM265.324 72.6409C266.196 72.6409 266.866 73.0767 267.336 73.9484C267.872 74.753 268.14 75.7923 268.14 77.0663C268.14 78.6085 267.906 79.8154 267.436 80.6871C266.967 81.5588 266.229 82.3299 265.224 83.0004C260.53 86.0848 254.261 90.3426 246.415 95.7738C243.8 109.721 240.414 120.684 236.257 128.663C232.1 136.642 226.803 140.632 220.366 140.632C216.879 140.632 214.096 139.559 212.018 137.413C209.872 135.335 208.799 132.585 208.799 129.166C208.799 124.405 210.643 119.309 214.331 113.878C218.019 108.514 224.959 101.876 235.151 93.9634L235.855 88.8339C236.793 82.3969 237.531 76.0605 238.067 69.8247C238.47 66.2039 239.107 60.8062 239.978 53.6316C240.247 51.6871 240.984 50.279 242.191 49.4073C243.398 48.4686 245.242 47.9992 247.723 47.9992C249.735 47.9992 251.042 48.301 251.646 48.9044C252.316 49.5079 252.651 50.346 252.651 51.4189C252.651 54.5033 251.545 63.0189 249.332 76.9657L248.326 83.9056C253.691 79.8825 258.585 76.3958 263.011 73.4455C263.883 72.9091 264.654 72.6409 265.324 72.6409ZM221.472 130.876C223.215 130.876 225.126 128.898 227.205 124.941C229.284 120.985 231.228 114.615 233.039 105.832C227.943 110.19 224.288 114.113 222.076 117.599C219.796 121.153 218.656 124.271 218.656 126.953C218.656 129.568 219.595 130.876 221.472 130.876Z" fill="#808080"/>
<path d="M278.993 95.3715C275.037 95.3715 271.651 94.3993 268.835 92.4548C266.086 90.4432 264.007 87.8282 262.599 84.6097C261.191 81.3912 260.487 77.938 260.487 74.2501C260.487 69.1542 261.426 64.6281 263.303 60.6721C265.248 56.6489 267.863 53.531 271.148 51.3183C274.434 49.0385 278.122 47.8986 282.212 47.8986C286.168 47.8986 289.554 48.9044 292.37 50.916C295.186 52.8605 297.299 55.442 298.707 58.6605C300.115 61.879 300.819 65.3322 300.819 69.0201C300.819 74.116 299.847 78.6755 297.902 82.6987C295.958 86.6547 293.309 89.7727 289.956 92.0524C286.671 94.2652 283.016 95.3715 278.993 95.3715ZM280.1 84.5091C282.38 84.5091 284.29 83.2686 285.833 80.7877C287.442 78.3068 288.247 74.6859 288.247 69.9253C288.247 66.2374 287.576 63.4547 286.235 61.5773C284.894 59.6998 283.285 58.7611 281.407 58.7611C278.993 58.7611 276.982 60.0015 275.373 62.4825C273.83 64.8963 273.059 68.5172 273.059 73.3449C273.059 77.1669 273.73 79.9831 275.071 81.7935C276.412 83.6039 278.088 84.5091 280.1 84.5091Z" fill="#808080"/>
<path d="M116.725 107.111C123.702 107.111 129.848 108.59 135.161 111.549C140.474 114.444 144.603 118.495 147.547 123.705C150.556 128.915 152.06 134.962 152.06 141.844C152.06 148.598 150.556 154.58 147.547 159.79C144.603 165 140.474 169.084 135.161 172.043C129.848 175.002 123.702 176.482 116.725 176.482C109.748 176.482 103.603 175.002 98.2896 172.043C92.9766 169.084 88.8157 165 85.8071 159.79C82.8625 154.58 81.3901 148.598 81.3901 141.844C81.3902 135.026 82.8626 129.012 85.8071 123.802C88.8157 118.592 92.9766 114.508 98.2896 111.549C103.603 108.59 109.748 107.111 116.725 107.111ZM37.4888 140.783L53.6196 108.558H73.5923V174.938H53.6196V140.204L41.4253 163.36H33.2642L20.9731 140.204V174.938H1.00146V108.558H20.9731L37.4888 140.783ZM185.713 149.948L195.891 108.558H211.934C211.276 109.385 210.673 110.194 210.127 110.988L210.12 111L210.111 111.013C206.06 116.978 203.699 123.063 203.699 129.165C203.699 133.383 204.959 137.231 207.72 140.297L196.948 174.938H172.462L152.875 108.558H175.535L185.713 149.948ZM243.996 174.938H222.295V145.641C230.394 144.875 236.479 139.277 240.781 131.02L241.198 130.204C242.178 128.256 243.11 126.165 243.996 123.935V174.938ZM300.929 123.223H277.885V134.994H298.913V147.151H277.885V159.79H300.929V174.938H254.552V108.558H300.929V123.223ZM116.628 124.092C112.596 124.092 109.299 125.732 106.739 129.012C104.178 132.228 102.898 136.474 102.898 141.748C102.898 146.894 104.178 151.043 106.739 154.195C109.299 157.346 112.628 158.922 116.725 158.922C120.758 158.922 124.054 157.346 126.615 154.195C129.239 151.043 130.551 146.894 130.551 141.748C130.551 138.275 129.943 135.219 128.727 132.582C127.575 129.945 125.943 127.887 123.831 126.407C121.782 124.864 119.381 124.092 116.628 124.092Z" fill="black"/>
</svg>
