<svg width="1161" height="414" viewBox="0 0 1161 414" fill="none" xmlns="http://www.w3.org/2000/svg">
<path d="M545.813 120.432H512.922V88.4362C512.922 84.2596 513.891 80.7542 515.83 77.92C517.919 74.9367 520.753 72.3262 524.333 70.0887C529.255 67.1054 535.147 64.7933 542.009 63.1525C549.02 61.3625 556.329 60.4675 563.937 60.4675C579.152 60.4675 586.759 65.5392 586.759 75.6825C586.759 78.0692 586.386 80.3067 585.64 82.395C585.044 84.3342 584.223 86.0496 583.179 87.5412C581.687 87.2429 579.823 87.0192 577.585 86.87C575.497 86.7208 573.26 86.6462 570.873 86.6462C566.249 86.6462 561.699 87.1683 557.224 88.2125C552.898 89.1075 549.095 90.5246 545.813 92.4637V120.432ZM545.813 112.601V170.776C544.47 171.075 542.457 171.448 539.772 171.895C537.087 172.343 534.178 172.566 531.045 172.566C524.78 172.566 520.156 171.448 517.173 169.21C514.339 166.972 512.922 162.945 512.922 157.127V111.93L545.813 112.601ZM613.452 32.7225C613.452 27.6508 615.167 23.3996 618.598 19.9687C622.178 16.5379 626.653 14.8225 632.023 14.8225C637.393 14.8225 641.793 16.5379 645.224 19.9687C648.655 23.3996 650.371 27.6508 650.371 32.7225C650.371 37.645 648.655 41.8962 645.224 45.4762C641.793 48.9071 637.393 50.6225 632.023 50.6225C626.653 50.6225 622.178 48.9071 618.598 45.4762C615.167 41.8962 613.452 37.645 613.452 32.7225ZM648.581 111.93V170.776C647.089 171.075 645.001 171.448 642.316 171.895C639.631 172.343 636.722 172.566 633.589 172.566C627.324 172.566 622.7 171.448 619.717 169.21C616.883 166.972 615.466 162.945 615.466 157.127V111.93H648.581ZM615.466 128.935V64.9425C616.957 64.495 619.046 64.0475 621.731 63.6C624.416 63.1525 627.324 62.9287 630.457 62.9287C636.722 62.9287 641.271 64.0475 644.106 66.285C647.089 68.3733 648.581 72.4008 648.581 78.3675V128.935H615.466ZM688.735 171C686.647 169.21 685.006 167.122 683.812 164.735C682.619 162.199 682.022 159.365 682.022 156.233C682.022 153.547 682.619 150.937 683.812 148.401C685.155 145.865 686.721 143.404 688.511 141.017L753.399 63.8237H765.034C767.122 65.6137 768.763 67.7767 769.956 70.3125C771.149 72.6992 771.746 75.4587 771.746 78.5912C771.746 81.1271 771.149 83.7375 769.956 86.4225C768.763 88.9583 767.197 91.345 765.257 93.5825L701.712 171H688.735ZM758.321 89.3312H686.274C685.528 87.9887 684.782 86.1987 684.036 83.9612C683.29 81.5746 682.917 79.1133 682.917 76.5775C682.917 72.1025 683.962 68.8954 686.05 66.9562C688.138 64.8679 690.898 63.8237 694.329 63.8237H758.321V89.3312ZM697.909 145.269H770.851C771.597 146.611 772.343 148.401 773.089 150.639C773.834 152.876 774.207 155.337 774.207 158.022C774.207 162.497 773.163 165.779 771.075 167.867C769.136 169.956 766.451 171 763.02 171H697.909V145.269ZM806.772 171C804.683 169.21 803.043 167.122 801.849 164.735C800.656 162.199 800.059 159.365 800.059 156.233C800.059 153.547 800.656 150.937 801.849 148.401C803.192 145.865 804.758 143.404 806.548 141.017L871.436 63.8237H883.071C885.159 65.6137 886.8 67.7767 887.993 70.3125C889.186 72.6992 889.783 75.4587 889.783 78.5912C889.783 81.1271 889.186 83.7375 887.993 86.4225C886.8 88.9583 885.233 91.345 883.294 93.5825L819.749 171H806.772ZM876.358 89.3312H804.311C803.565 87.9887 802.819 86.1987 802.073 83.9612C801.327 81.5746 800.954 79.1133 800.954 76.5775C800.954 72.1025 801.998 68.8954 804.087 66.9562C806.175 64.8679 808.935 63.8237 812.366 63.8237H876.358V89.3312ZM815.946 145.269H888.888C889.634 146.611 890.38 148.401 891.126 150.639C891.871 152.876 892.244 155.337 892.244 158.022C892.244 162.497 891.2 165.779 889.112 167.867C887.173 169.956 884.488 171 881.057 171H815.946V145.269ZM610.253 307.446H577.362V286.19C577.362 280.969 575.795 277.24 572.663 275.002C569.68 272.616 565.95 271.422 561.475 271.422C558.194 271.422 555.21 271.945 552.525 272.989C549.84 273.884 547.603 274.853 545.813 275.897V307.446H512.922V272.541C512.922 268.812 513.667 265.754 515.159 263.367C516.8 260.832 519.187 258.594 522.319 256.655C527.092 253.224 533.059 250.465 540.219 248.376C547.379 246.288 554.837 245.244 562.594 245.244C569.754 245.244 576.467 246.362 582.732 248.6C588.997 250.837 594.441 254.268 599.065 258.892C600.259 259.787 601.377 260.757 602.422 261.801C603.466 262.696 604.286 263.74 604.883 264.934C606.375 267.32 607.642 270.005 608.687 272.989C609.731 275.972 610.253 278.955 610.253 281.939V307.446ZM674.693 307.446H641.578V286.19C641.578 280.969 640.161 277.24 637.327 275.002C634.492 272.616 630.763 271.422 626.139 271.422C622.708 271.422 619.427 272.094 616.294 273.436C613.162 274.779 610.551 276.494 608.463 278.582L591.01 259.34C595.933 255.611 601.527 252.329 607.792 249.495C614.057 246.661 621.739 245.244 630.838 245.244C638.595 245.244 645.755 246.586 652.318 249.271C659.03 251.956 664.4 256.207 668.428 262.025C672.605 267.842 674.693 275.525 674.693 285.071V307.446ZM545.813 297.154V355.776C544.47 356.075 542.457 356.448 539.772 356.895C537.087 357.343 534.178 357.566 531.045 357.566C524.78 357.566 520.156 356.448 517.173 354.21C514.339 351.972 512.922 347.945 512.922 342.127V297.154H545.813ZM610.253 297.154V355.776C608.91 356.075 606.897 356.448 604.212 356.895C601.527 357.343 598.618 357.566 595.485 357.566C589.22 357.566 584.596 356.448 581.613 354.21C578.779 351.972 577.362 347.945 577.362 342.127V297.154H610.253ZM674.693 297.154V355.776C673.201 356.075 671.113 356.448 668.428 356.895C665.743 357.343 662.909 357.566 659.925 357.566C653.511 357.566 648.812 356.448 645.829 354.21C642.995 351.972 641.578 347.945 641.578 342.127V297.154H674.693ZM820.101 302.3C820.101 313.935 817.789 324.078 813.164 332.73C808.54 341.232 801.977 347.796 793.474 352.42C784.972 357.044 774.978 359.356 763.492 359.356C752.006 359.356 742.012 357.119 733.509 352.644C725.007 348.02 718.444 341.456 713.819 332.954C709.195 324.302 706.883 314.084 706.883 302.3C706.883 290.665 709.195 280.596 713.819 272.094C718.593 263.591 725.231 257.028 733.733 252.404C742.385 247.63 752.304 245.244 763.492 245.244C774.829 245.244 784.748 247.63 793.251 252.404C801.753 257.028 808.316 263.666 812.941 272.317C817.714 280.82 820.101 290.814 820.101 302.3ZM763.492 271.422C756.481 271.422 750.887 274.107 746.711 279.477C742.683 284.847 740.669 292.455 740.669 302.3C740.669 312.294 742.683 319.976 746.711 325.346C750.738 330.716 756.332 333.401 763.492 333.401C770.801 333.401 776.395 330.716 780.273 325.346C784.301 319.827 786.314 312.145 786.314 302.3C786.314 292.604 784.301 285.071 780.273 279.701C776.246 274.182 770.652 271.422 763.492 271.422ZM933.638 246.362C938.113 246.362 941.917 247.407 945.049 249.495C948.182 251.434 949.748 254.79 949.748 259.564C949.748 262.249 948.928 266.425 947.287 272.094C945.795 277.762 943.781 284.325 941.246 291.784C938.859 299.093 936.174 306.7 933.191 314.606C930.207 322.363 927.224 329.672 924.241 336.534C921.257 343.246 918.572 348.84 916.186 353.315C914.545 354.508 911.934 355.552 908.354 356.448C904.923 357.492 901.045 358.014 896.719 358.014C891.648 358.014 887.247 357.343 883.518 356C879.938 354.657 877.477 352.569 876.134 349.735C874.493 346.602 872.48 342.202 870.093 336.534C867.706 330.865 865.096 324.451 862.262 317.291C859.577 309.982 856.892 302.449 854.207 294.692C851.671 286.936 849.21 279.477 846.823 272.317C844.586 265.157 842.87 258.892 841.677 253.522C843.467 251.583 845.853 249.942 848.837 248.6C851.969 247.108 855.326 246.362 858.906 246.362C863.53 246.362 867.259 247.332 870.093 249.271C873.076 251.21 875.314 254.865 876.806 260.235L886.651 295.811C887.844 299.988 889.037 304.165 890.231 308.341C891.573 312.518 892.766 316.471 893.811 320.2C895.004 323.78 895.899 326.763 896.496 329.15H897.614C901.194 317.067 904.774 304.165 908.354 290.441C912.083 276.569 915.365 263.069 918.199 249.942C922.823 247.556 927.97 246.362 933.638 246.362ZM978.881 217.722C978.881 212.651 980.596 208.4 984.027 204.969C987.607 201.538 992.082 199.822 997.452 199.822C1002.82 199.822 1007.22 201.538 1010.65 204.969C1014.08 208.4 1015.8 212.651 1015.8 217.722C1015.8 222.645 1014.08 226.896 1010.65 230.476C1007.22 233.907 1002.82 235.622 997.452 235.622C992.082 235.622 987.607 233.907 984.027 230.476C980.596 226.896 978.881 222.645 978.881 217.722ZM1014.01 296.93V355.776C1012.52 356.075 1010.43 356.448 1007.74 356.895C1005.06 357.343 1002.15 357.566 999.018 357.566C992.753 357.566 988.129 356.448 985.146 354.21C982.312 351.972 980.895 347.945 980.895 342.127V296.93H1014.01ZM980.895 313.935V249.942C982.386 249.495 984.475 249.047 987.16 248.6C989.845 248.152 992.753 247.929 995.886 247.929C1002.15 247.929 1006.7 249.047 1009.53 251.285C1012.52 253.373 1014.01 257.401 1014.01 263.367V313.935H980.895ZM1066.25 295.587L1121.96 286.861C1121.51 282.535 1119.65 278.657 1116.37 275.226C1113.08 271.646 1108.24 269.856 1101.82 269.856C1094.96 269.856 1089.29 272.168 1084.82 276.792C1080.34 281.267 1078.03 287.756 1077.88 296.259L1078.78 311.474C1080.27 319.678 1083.85 325.57 1089.52 329.15C1095.18 332.581 1101.9 334.296 1109.65 334.296C1115.92 334.296 1121.81 333.476 1127.33 331.835C1132.85 330.045 1137.32 328.106 1140.76 326.017C1142.84 327.36 1144.63 329.225 1146.13 331.611C1147.62 333.998 1148.36 336.534 1148.36 339.219C1148.36 343.694 1146.57 347.423 1142.99 350.406C1139.56 353.39 1134.71 355.627 1128.45 357.119C1122.33 358.61 1115.32 359.356 1107.42 359.356C1095.93 359.356 1085.64 357.193 1076.54 352.867C1067.44 348.542 1060.28 342.053 1055.06 333.401C1049.84 324.75 1047.23 313.935 1047.23 300.957C1047.23 291.411 1048.72 283.132 1051.7 276.121C1054.69 269.11 1058.71 263.367 1063.79 258.892C1069.01 254.268 1074.82 250.837 1081.24 248.6C1087.8 246.362 1094.59 245.244 1101.6 245.244C1111.89 245.244 1120.84 247.332 1128.45 251.509C1136.21 255.536 1142.25 261.055 1146.57 268.066C1150.9 275.077 1153.06 283.207 1153.06 292.455C1153.06 297.079 1151.79 300.585 1149.26 302.971C1146.72 305.209 1143.22 306.7 1138.74 307.446L1067.59 317.962L1066.25 295.587Z" fill="#EAEAEA"/>
<path d="M320.857 0C342.156 6.08168e-05 361.592 6.98019 378.819 20.5195C397.034 34.4973 407.489 54.9421 411.082 80.2881L448.896 331.417C451.899 350.008 448.502 367.091 437.978 381.664C427.65 395.963 413.438 404.685 395.996 407.46L395.889 407.477L366.8 411.841L366.758 411.847L366.715 411.853C348.253 414.49 331.373 411.155 317.096 400.957C303.066 390.935 294.427 376.923 291.294 359.691L291.275 359.592L291.26 359.492L277.536 276.24C275.061 278.476 272.511 280.644 269.885 282.745C257.854 292.37 243.62 297.078 227.775 297.078C212.562 297.078 198.557 293.044 186.115 284.879L186.04 284.83L185.966 284.779C181.477 281.738 177.138 278.342 172.946 274.605L159.451 358.949L159.449 358.967L159.446 358.982C156.674 376.013 148.199 390.083 134.454 400.687L134.434 400.703L134.413 400.719C120.72 411.19 104.896 415.073 87.7802 412.325L58.6923 407.962L58.6318 407.953L58.5732 407.943C39.7021 404.924 24.1687 396.391 12.9873 382.015L12.9209 381.929L12.8554 381.844C1.96531 367.324 -1.85203 350.222 0.821251 331.509L0.82711 331.466L0.833946 331.423L38.6484 79.3262L38.6562 79.2695L38.666 79.2129C42.5085 55.1104 52.1 35.4091 68.3213 21.4688L69.0996 20.8086C85.7151 6.84483 105.707 5.60814e-05 128.39 0C144.152 7.97562e-06 159.763 4.13431 175.102 11.9648C192.221 20.5248 205.251 35.063 214.567 54.3623L225.736 76.9385L236.893 51.9014L236.899 51.8857L236.907 51.8691C245.004 33.8355 257.185 20.2018 273.659 11.9648C289.044 4.11098 304.816 0 320.857 0ZM95.4121 400.792C96.2451 400.839 97.0726 400.865 97.8945 400.871C97.0726 400.865 96.2451 400.839 95.4121 400.792ZM103.422 400.595C103.019 400.639 102.615 400.677 102.209 400.711C102.818 400.661 103.423 400.599 104.025 400.525L103.422 400.595ZM94.1132 400.703C94.3255 400.72 94.5374 400.736 94.749 400.751C94.5374 400.736 94.3255 400.72 94.1132 400.703ZM56.9463 395.131C58.1169 395.375 59.307 395.596 60.5175 395.79L89.6054 400.153C90.6913 400.33 91.7687 400.474 92.8369 400.586C91.7686 400.474 90.6915 400.329 89.6054 400.152L60.5166 395.789C59.3064 395.595 58.1165 395.375 56.9463 395.131ZM105.226 400.362H105.227H105.226ZM357.716 400.35H357.717H357.716ZM108.776 399.687H108.777H108.776ZM111.813 398.865C111.63 398.922 111.447 398.977 111.263 399.031C111.447 398.977 111.63 398.922 111.813 398.865ZM117.87 396.509H117.871H117.87ZM53.372 394.29C54.4427 394.572 55.5312 394.83 56.6377 395.066C55.5312 394.83 54.4427 394.572 53.372 394.29ZM393.578 389.486L364.004 393.85C361.217 394.274 358.514 394.527 355.897 394.61L354.596 394.639C357.616 394.608 360.753 394.345 364.005 393.85L393.577 389.487C393.906 389.444 394.233 389.395 394.558 389.346C394.233 389.395 393.906 389.443 393.578 389.486ZM344.106 393.726C345.867 394.068 347.676 394.313 349.532 394.464C347.676 394.313 345.867 394.068 344.106 393.726ZM50.5498 393.482C51.3725 393.738 52.2065 393.978 53.0517 394.205C52.2065 393.978 51.3725 393.738 50.5498 393.482ZM332.566 389.764C335.469 391.255 338.543 392.404 341.788 393.212L341.217 393.065C337.992 392.218 334.938 391.028 332.056 389.496L332.566 389.764ZM44.0166 391.05C44.7185 391.358 45.4302 391.654 46.1513 391.938C45.4302 391.654 44.7185 391.358 44.0166 391.05ZM41.6338 389.938C42.2385 390.238 42.8508 390.527 43.4707 390.807C42.8508 390.527 42.2385 390.238 41.6338 389.938ZM54.1484 388.541C54.6612 388.677 55.1781 388.809 55.7002 388.934C55.1781 388.809 54.6612 388.677 54.1484 388.541ZM313.994 371.248C316.994 376.963 321.221 381.911 326.675 386.093C328.24 387.254 329.865 388.298 331.549 389.223L331.046 388.941C329.541 388.088 328.084 387.138 326.675 386.093C323.645 383.77 320.993 381.21 318.721 378.414C318.039 377.575 317.392 376.715 316.778 375.833C316.369 375.245 315.975 374.648 315.597 374.042C315.407 373.739 315.221 373.433 315.039 373.125C314.675 372.509 314.327 371.883 313.994 371.248ZM399.157 388.409C398.515 388.575 397.866 388.725 397.209 388.864C398.234 388.647 399.242 388.4 400.23 388.117L399.157 388.409ZM37.2929 387.547C37.6433 387.761 37.9963 387.972 38.3525 388.179C37.9963 387.972 37.6433 387.761 37.2929 387.547ZM403.365 387.087C403.024 387.214 402.681 387.337 402.335 387.456C403.027 387.219 403.709 386.965 404.382 386.693L403.365 387.087ZM34.5029 385.722C35.0795 386.125 35.665 386.517 36.2588 386.898C35.665 386.517 35.0795 386.125 34.5029 385.722ZM22.4375 363.446C23.7051 366.101 25.2475 368.641 27.0654 371.064C32.6204 378.175 39.7032 383.376 48.3134 386.667C45.5742 385.62 42.9896 384.379 40.5595 382.945C40.0388 382.638 39.5251 382.322 39.0185 381.997C34.4592 379.072 30.4753 375.427 27.0664 371.063C25.2483 368.639 23.7052 366.1 22.4375 363.445V363.446ZM407.346 385.356C407.023 385.518 406.699 385.675 406.372 385.828C407.026 385.523 407.671 385.2 408.306 384.86L407.346 385.356ZM33.2959 384.854L33.2949 384.853L33.2959 384.854ZM421.61 381.866C421 382.456 420.378 383.028 419.745 383.581C420.378 383.028 421 382.456 421.61 381.866ZM320.857 30.4355C310.056 30.4355 299.001 33.1208 287.578 38.832L287.521 38.8604L287.464 38.8887C277.923 43.5367 270.06 51.7746 264.222 64.8418L240.627 117.81C238.522 123.205 234.232 125.458 230.67 126.356C230.67 126.356 228.116 127.102 226.885 127.103C225.654 127.103 222.796 126.511 222.796 126.511C221.099 126.12 219.399 125.428 217.796 124.359C215.148 122.594 213.456 120.275 212.402 118.169L187.17 67.7061L187.148 67.6611C179.931 52.938 171.116 43.7976 161.185 38.832L161.128 38.8037L161.073 38.7754C150.037 33.1158 139.182 30.4356 128.39 30.4355C112.526 30.4356 99.4752 34.9598 88.5976 43.7148L88.583 43.7256L88.5683 43.7373C78.7618 51.5826 71.7385 64.3405 68.8134 83.9385L68.8105 83.9502L30.9961 335.564L30.9863 335.627C29.1642 347.342 31.4119 356.295 36.8486 363.591C42.755 371.098 51.0777 375.964 62.8691 377.804L92.248 382.138C101.316 383.316 109.003 381.244 116.053 375.84L116.13 375.78L116.208 375.723C123.73 370.142 127.912 363.253 129.325 354.575L146.835 244.168L146.917 243.8C147.817 239.749 150.039 234.579 154.932 231.378C154.932 231.378 156.724 229.241 159.186 228.638C161.632 228.038 165.109 228.63 165.152 228.638C166.98 228.732 168.849 229.126 170.696 229.896C174.162 231.34 176.636 233.715 178.35 236.004C185.707 245.097 193.689 252.611 202.276 258.633C210.32 264.062 218.734 266.643 227.775 266.643C236.651 266.642 244.516 264.009 251.746 258.555C260.309 251.749 267.416 244.463 273.152 236.72L273.222 236.626L289.705 214.809L289.808 214.673L289.914 214.541C291.43 212.646 294.678 209.339 299.938 208.682C305.712 207.96 309.92 210.853 312.107 213.04C314.226 215.158 316.268 218.306 316.728 222.445C317.183 226.535 315.914 229.991 314.444 232.44L314.081 233.044L297.655 254.448C297.549 254.587 297.441 254.723 297.335 254.861C297.637 254.999 297.923 255.14 298.192 255.283C302.063 257.047 304.985 260.284 306.354 264.393L306.664 265.319L321.367 354.518L321.374 354.56L321.38 354.601C322.831 363.791 326.992 370.797 334.086 376.264C340.932 381.311 349.863 383.552 362.153 381.682L362.181 381.677L362.209 381.673L391.781 377.31L391.876 377.295L391.972 377.283C400.752 376.128 407.6 372.058 413.105 364.432C418.444 356.731 420.584 347.447 418.745 335.627L418.74 335.599L418.736 335.57L380.922 84.9258L380.921 84.915L380.918 84.9033C378.885 71.2537 374.67 61.1627 368.905 53.8945L368.843 53.8154L368.78 53.7344C362.505 45.5496 355.233 39.8137 346.951 36.1904L346.885 36.1621L346.818 36.1318C338.341 32.3035 329.721 30.4356 320.857 30.4355ZM26.4453 378.8C26.7635 379.133 27.0856 379.461 27.4111 379.785C27.0856 379.461 26.7635 379.133 26.4453 378.8ZM425.976 377.099V377.1V377.099ZM140.824 375.38C140.757 375.494 140.69 375.609 140.622 375.723C140.795 375.431 140.966 375.139 141.133 374.844L140.824 375.38ZM23.3095 375.224C23.4153 375.355 23.5212 375.486 23.6279 375.616C23.5212 375.486 23.4153 375.355 23.3095 375.224ZM21.5117 372.809C21.5583 372.876 21.6064 372.942 21.6533 373.009C21.477 372.757 21.3021 372.505 21.1308 372.252L21.5117 372.809ZM143.36 370.42C143.069 371.077 142.764 371.726 142.446 372.367C142.764 371.726 143.069 371.077 143.36 370.42ZM430.721 370.288C430.555 370.57 430.388 370.851 430.217 371.13C430.388 370.851 430.555 370.57 430.721 370.288ZM18.875 368.602C18.95 368.735 19.0252 368.868 19.1015 369.001C19.0252 368.868 18.95 368.735 18.875 368.602ZM144.536 367.532C144.48 367.682 144.423 367.831 144.366 367.98C144.498 367.637 144.627 367.291 144.752 366.943L144.536 367.532ZM305.455 365.573C305.661 366.195 305.875 366.81 306.102 367.418C305.875 366.81 305.661 366.195 305.455 365.573ZM147.297 357.005C146.873 359.611 146.29 362.126 145.548 364.55C146.29 362.126 146.874 359.611 147.298 357.005L164.75 247.924L147.297 357.005ZM16.4658 363.73C16.5422 363.909 16.6197 364.086 16.6982 364.264C16.6197 364.086 16.5422 363.909 16.4658 363.73ZM19.4599 355.136C20.1293 357.829 21.0387 360.421 22.1875 362.913L21.9453 362.378C20.9101 360.05 20.0817 357.636 19.4599 355.135V355.136ZM429.468 358.732C429.367 359.054 429.263 359.373 429.155 359.691C429.263 359.373 429.367 359.053 429.468 358.732ZM303.403 357.489C303.455 357.776 303.513 358.061 303.568 358.345C303.513 358.061 303.456 357.776 303.404 357.49L297.33 320.645L303.403 357.489ZM430.123 356.438C430.073 356.631 430.022 356.823 429.97 357.016L429.971 357.015C430.023 356.822 430.073 356.63 430.123 356.437V356.438ZM18.6357 351.021C18.7892 352.018 18.9739 353.003 19.1884 353.975C19.1026 353.586 19.0214 353.195 18.9453 352.802C18.9073 352.605 18.8705 352.408 18.8349 352.211C18.7637 351.816 18.6971 351.419 18.6357 351.02V351.021ZM18.1035 345.508H18.1045H18.1035ZM437.6 341.936C437.616 342.406 437.627 342.874 437.633 343.341C437.627 342.874 437.616 342.406 437.6 341.936ZM431.612 340.41H431.613H431.612ZM18.458 336.437C18.3557 337.329 18.274 338.214 18.2109 339.09C18.274 338.214 18.3557 337.329 18.458 336.437ZM159.364 244.952C159.253 245.263 159.151 245.591 159.061 245.937C159.015 246.109 158.973 246.287 158.933 246.469V246.47C159.054 245.924 159.197 245.418 159.364 244.952ZM13.0058 333.249C12.8998 333.991 12.8065 334.729 12.7246 335.462C12.6427 336.195 12.5724 336.924 12.5146 337.647C12.4376 338.613 12.3827 339.57 12.3486 340.52C12.4338 338.148 12.6523 335.724 13.0058 333.25L43.9336 127.07L13.0058 333.249ZM398.91 82.1211L436.725 333.25C437.088 335.477 437.344 337.662 437.49 339.806L437.437 339.089C437.4 338.61 437.356 338.13 437.308 337.647C437.283 337.406 437.257 337.164 437.23 336.922C437.096 335.71 436.928 334.486 436.726 333.249L398.91 82.1211ZM243.045 282.849C238.248 284.129 233.158 284.769 227.774 284.769L227.775 284.77C231.502 284.769 235.088 284.462 238.534 283.849C239.3 283.712 240.059 283.561 240.811 283.395C241.562 283.228 242.307 283.046 243.045 282.849ZM225.395 284.729C226.18 284.755 226.97 284.768 227.765 284.769C226.97 284.768 226.18 284.755 225.395 284.729ZM215.109 283.604C215.731 283.723 216.356 283.831 216.984 283.932C216.356 283.831 215.731 283.723 215.109 283.604ZM250.537 280.224L250.538 280.225L250.537 280.224ZM224.454 278.857C224.822 278.878 225.191 278.896 225.561 278.91C225.191 278.896 224.822 278.878 224.454 278.857ZM221.171 278.576C221.45 278.608 221.729 278.637 222.009 278.665C221.729 278.637 221.45 278.608 221.171 278.576ZM219.199 278.315H219.2H219.199ZM212.967 277.003C213.65 277.189 214.337 277.36 215.026 277.52C214.337 277.36 213.65 277.189 212.967 277.003ZM195.812 276.408C195.857 276.434 195.903 276.459 195.948 276.485C195.572 276.268 195.196 276.047 194.823 275.821L195.812 276.408ZM207.903 275.362H207.904H207.903ZM191.212 273.441C191.636 273.74 192.061 274.035 192.487 274.326C192.061 274.035 191.636 273.74 191.212 273.441ZM259.286 268.286H259.287H259.286ZM294.068 267.198C294.284 267.443 294.458 267.73 294.592 268.057C294.528 267.902 294.457 267.756 294.375 267.619C294.345 267.569 294.313 267.52 294.28 267.472C294.215 267.376 294.144 267.284 294.068 267.198ZM289.224 267.315C289.163 267.437 289.11 267.568 289.064 267.71L289.139 267.506C289.165 267.44 289.193 267.377 289.224 267.316V267.315ZM270.108 266.358V266.359V266.358ZM290.83 265.982C290.648 266.063 290.476 266.184 290.314 266.346C290.108 266.415 289.925 266.515 289.763 266.643C289.925 266.515 290.108 266.415 290.314 266.347C290.476 266.185 290.648 266.063 290.83 265.982ZM292.041 265.983C292.263 266.064 292.496 266.185 292.738 266.347C292.92 266.407 293.09 266.478 293.249 266.562C293.143 266.506 293.032 266.456 292.916 266.41C292.858 266.388 292.799 266.366 292.738 266.346C292.617 266.265 292.498 266.194 292.382 266.134C292.266 266.073 292.152 266.024 292.041 265.983ZM264.405 264.036C263.927 264.452 263.445 264.865 262.959 265.276C263.445 264.865 263.927 264.452 264.405 264.036ZM179.698 255.782C180.522 256.589 181.352 257.382 182.19 258.16C181.352 257.382 180.522 256.589 179.698 255.782ZM278.27 258.292V258.291V258.292ZM166.674 241.629C167.371 242.068 168.022 242.712 168.628 243.561C171.405 247.005 174.28 250.257 177.248 253.319C176.439 252.484 175.636 251.635 174.841 250.771C174.576 250.484 174.311 250.194 174.048 249.903C172.203 247.866 170.396 245.752 168.629 243.561C167.972 242.641 167.262 241.962 166.499 241.523L166.674 241.629ZM304.503 224.358H304.502C304.456 224.919 304.252 225.502 303.889 226.107L287.891 246.954V246.955L303.89 226.107C304.011 225.906 304.114 225.707 304.2 225.51C304.372 225.116 304.473 224.732 304.503 224.358ZM159.728 244.074V244.073V244.074ZM165.962 241.258C166.083 241.308 166.203 241.365 166.322 241.427L166.144 241.338C166.023 241.282 165.902 241.231 165.779 241.187L165.962 241.258ZM164.643 240.937H164.644H164.643ZM303.633 221.989C303.849 222.235 304.025 222.487 304.161 222.744C304.07 222.572 303.962 222.403 303.836 222.236C303.773 222.153 303.705 222.07 303.633 221.988V221.989ZM228.07 114.324C227.611 114.51 227.027 114.603 226.32 114.603C226.242 114.603 226.164 114.6 226.088 114.596C226.164 114.601 226.242 114.604 226.32 114.604C226.421 114.604 226.52 114.601 226.616 114.598C226.712 114.594 226.806 114.589 226.896 114.581C227.442 114.536 227.896 114.421 228.26 114.239L228.07 114.324ZM225.659 114.54C225.789 114.566 225.923 114.583 226.061 114.593C225.923 114.583 225.789 114.565 225.659 114.54ZM225.061 114.354C225.224 114.426 225.395 114.481 225.574 114.521C225.395 114.481 225.224 114.426 225.061 114.354ZM254.97 55.667C254.282 57.0115 253.621 58.3962 252.984 59.8203L229.228 113.148C229.148 113.391 229.028 113.603 228.866 113.785C229.028 113.603 229.149 113.391 229.229 113.148L252.984 59.8203C253.621 58.3964 254.282 57.0123 254.97 55.668V55.667ZM203.534 59.8203L226.32 105.876L203.535 59.8203C203.272 59.2748 203.007 58.7346 202.738 58.1992L203.534 59.8203ZM392.639 80.2764C392.315 78.4229 391.951 76.6151 391.547 74.8525C391.85 76.1746 392.13 77.5223 392.388 78.8955C392.473 79.353 392.557 79.8132 392.638 80.2764H392.639ZM388.639 64.8232C388.921 65.6137 389.194 66.4154 389.457 67.2285L389.056 66.0176C388.919 65.6166 388.78 65.2185 388.639 64.8232ZM61.3857 62.6318H61.3867H61.3857ZM64.3798 55.3975C63.8937 56.4196 63.4267 57.4639 62.9785 58.5303C63.4267 57.4639 63.8937 56.4196 64.3798 55.3975ZM198.516 50.5723C199.697 52.5042 200.833 54.5162 201.925 56.6084L201.095 55.0479C200.26 53.511 199.401 52.0192 198.516 50.5723ZM384.207 54.8447V54.8438V54.8447ZM67.5234 49.5312C67.2425 49.998 66.9667 50.4704 66.6953 50.9482C66.9667 50.4704 67.2425 49.998 67.5234 49.5312ZM381.365 50.125C381.546 50.3975 381.727 50.6715 381.904 50.9482C381.727 50.6715 381.546 50.3975 381.365 50.125ZM61.7285 48.5811C61.4923 48.9918 61.2608 49.4067 61.0312 49.8242C61.2608 49.4067 61.4923 48.9918 61.7285 48.5811ZM380.571 48.959C380.708 49.1537 380.841 49.3509 380.976 49.5479C380.627 49.0372 380.274 48.5327 379.912 48.0371L380.571 48.959ZM377.848 45.3447C378.083 45.6427 378.317 45.9431 378.549 46.2461C378.781 46.5389 379.011 46.8343 379.238 47.1328L378.549 46.2451C378.084 45.6392 377.614 45.0437 377.138 44.458L377.848 45.3447ZM70.6464 44.832C70.1754 45.4742 69.7153 46.1289 69.2656 46.7959L69.7187 46.1338C70.0234 45.6945 70.3323 45.2603 70.6464 44.832ZM194.804 44.9727L194.805 44.9736L194.804 44.9727ZM73.6005 41.1279C72.7444 42.1155 71.918 43.1377 71.1211 44.1943L71.6035 43.5645C72.4122 42.5219 73.2503 41.5136 74.1181 40.54L73.6005 41.1279ZM193.837 43.6553H193.838H193.837ZM374.958 41.8906V41.8896V41.8906ZM183.769 40.7422H183.769H183.769ZM372.7 39.458L372.701 39.459L372.7 39.458ZM76.8105 37.7217C76.2542 38.2645 75.7088 38.82 75.1738 39.3877L75.7129 38.8242C75.8935 38.6378 76.0757 38.4532 76.2588 38.2695C76.4418 38.0858 76.6261 37.9036 76.8115 37.7227L76.8105 37.7217ZM378.579 36.748V36.7471V36.748ZM365.47 32.9824C366.031 33.4168 366.587 33.8609 367.137 34.3154C367.412 34.5427 367.685 34.7726 367.957 35.0049C368.773 35.7017 369.577 36.4209 370.367 37.1631L369.572 36.4277C368.24 35.2159 366.872 34.068 365.47 32.9824ZM178.632 35.8037C178.783 35.934 178.934 36.0652 179.085 36.1973C178.758 35.9108 178.429 35.6287 178.099 35.3506L178.632 35.8037ZM82.7597 32.6611C82.1273 33.1376 81.5 33.6251 80.8789 34.125C80.6767 34.2867 80.4761 34.4507 80.2763 34.6152C80.476 34.4508 80.6768 34.2876 80.8789 34.126C81.5 33.626 82.1272 33.1377 82.7597 32.6611ZM262.701 34.9883H262.702H262.701ZM176.193 33.8135C176.423 33.9916 176.653 34.1715 176.881 34.3535C176.653 34.1715 176.423 33.9916 176.193 33.8135ZM173.872 32.1035C174.06 32.2349 174.247 32.3681 174.434 32.502C174.247 32.3681 174.06 32.2349 173.872 32.1035ZM367.743 27.5947C368.93 28.4436 370.108 29.3275 371.276 30.2471C370.108 29.3275 368.93 28.4436 367.743 27.5947ZM75.7119 31.3535H75.7129H75.7119ZM173.14 31.5996C173.232 31.6619 173.323 31.7252 173.415 31.7881C173.135 31.5962 172.854 31.4062 172.571 31.2197L173.14 31.5996ZM85.3193 30.8174C85.1035 30.9658 84.8884 31.1156 84.6738 31.2666L85.3203 30.8174C85.5361 30.669 85.7526 30.5218 85.9697 30.376L85.3193 30.8174ZM171.189 30.3369C171.46 30.5047 171.73 30.6741 171.999 30.8467L171.424 30.4814C171.346 30.4327 171.267 30.3852 171.189 30.3369ZM89.2734 28.2861C88.3797 28.8172 87.4965 29.3696 86.623 29.9424L87.2802 29.5166C88.1589 28.9542 89.0474 28.4124 89.9463 27.8916L89.2734 28.2861ZM85.3066 24.1504C84.3495 24.7577 83.4041 25.3889 82.4697 26.043C83.4041 25.3889 84.3495 24.7577 85.3066 24.1504ZM167.511 28.2432C167.739 28.362 167.967 28.4824 168.193 28.6045C167.967 28.4825 167.739 28.362 167.511 28.2432ZM178.513 28.3828V28.3838V28.3828ZM96.167 24.6934C95.2227 25.1204 94.2883 25.5675 93.3642 26.0361C94.2882 25.5675 95.2227 25.1204 96.167 24.6934ZM274.225 25.7314C273.826 25.9789 273.43 26.231 273.037 26.4873C273.626 26.1029 274.222 25.7288 274.825 25.3643L274.225 25.7314ZM164.323 26.6484C164.396 26.6835 164.469 26.7196 164.542 26.7549C164.075 26.5291 163.607 26.3067 163.14 26.0898L164.323 26.6484ZM349.468 23.8711C350.275 24.2047 351.081 24.5523 351.884 24.915C353.176 25.4806 354.447 26.0861 355.694 26.7324L354.755 26.2549C353.811 25.7853 352.854 25.3382 351.885 24.9141C351.081 24.5513 350.275 24.2048 349.468 23.8711ZM366.516 26.7324C366.451 26.6879 366.387 26.643 366.322 26.5986C366.387 26.643 366.451 26.6879 366.516 26.7324ZM366.019 26.3916C365.856 26.281 365.694 26.1708 365.531 26.0615C365.694 26.1708 365.856 26.281 366.019 26.3916ZM365.265 25.8838C365.131 25.7948 364.998 25.7053 364.864 25.6172C364.998 25.7053 365.131 25.7948 365.265 25.8838ZM173.52 25.1104V25.1113V25.1104ZM364.454 25.3496C364.363 25.2903 364.272 25.2308 364.181 25.1719C364.272 25.2308 364.363 25.2903 364.454 25.3496ZM363.778 24.9141C363.645 24.8291 363.512 24.7442 363.379 24.6602C363.512 24.7442 363.645 24.8291 363.778 24.9141ZM281.769 21.6826C280.901 22.0993 280.032 22.5301 279.163 22.9746C278.103 23.5049 277.062 24.063 276.041 24.6484L276.656 24.3008C277.479 23.8412 278.316 23.3989 279.164 22.9746C280.467 22.3081 281.769 21.6724 283.072 21.0684L281.769 21.6826ZM363.082 24.4746C362.941 24.3868 362.801 24.2988 362.66 24.2119C362.801 24.2988 362.941 24.3868 363.082 24.4746ZM362.387 24.0449C362.225 23.9458 362.063 23.8469 361.9 23.749C362.063 23.8469 362.225 23.9458 362.387 24.0449ZM361.619 23.5811C361.496 23.5077 361.374 23.434 361.251 23.3613C361.374 23.434 361.496 23.5077 361.619 23.5811ZM360.866 23.1357C360.725 23.0535 360.584 22.9719 360.443 22.8906C360.584 22.9719 360.725 23.0535 360.866 23.1357ZM360.189 22.7451C360.038 22.6585 359.886 22.5719 359.734 22.4863C359.886 22.5719 360.038 22.6585 360.189 22.7451ZM359.435 22.3184C359.258 22.22 359.082 22.1223 358.905 22.0254C359.082 22.1223 359.258 22.22 359.435 22.3184ZM358.701 21.9141C358.542 21.8271 358.382 21.7411 358.222 21.6553C358.382 21.7411 358.542 21.8271 358.701 21.9141ZM90.4345 21.1768V21.1777V21.1768ZM357.959 21.5137C357.803 21.4305 357.646 21.3486 357.489 21.2666C357.646 21.3486 357.803 21.4305 357.959 21.5137ZM148.856 20.8633C149.198 20.9552 149.539 21.05 149.88 21.1465C149.14 20.9373 148.401 20.7382 147.66 20.5508L148.856 20.8633ZM357.198 21.1143C357.064 21.0447 356.929 20.976 356.795 20.9072C356.929 20.976 357.064 21.0447 357.198 21.1143ZM356.431 20.7217C356.296 20.6538 356.162 20.5866 356.027 20.5195C356.162 20.5866 356.296 20.6538 356.431 20.7217ZM288.284 18.8184C289.153 18.4712 290.021 18.1377 290.89 17.8184C290.021 18.1377 289.153 18.4712 288.284 18.8184ZM92.6972 20.0342H92.6963H92.6972ZM355.679 20.3457C355.545 20.2798 355.41 20.2155 355.276 20.1504C355.41 20.2155 355.545 20.2798 355.679 20.3457ZM354.883 19.96C354.787 19.9139 354.69 19.8689 354.594 19.8232C354.69 19.8689 354.787 19.9139 354.883 19.96ZM157.91 17.8193C159.205 18.2985 160.5 18.8089 161.798 19.3506V19.3496C161.365 19.1691 160.933 18.992 160.501 18.8184C159.637 18.4712 158.773 18.1387 157.91 17.8193ZM354.211 19.6416C354.031 19.5576 353.851 19.4751 353.671 19.3926C353.851 19.4751 354.031 19.5576 354.211 19.6416ZM308.737 19.0732C307.935 19.1987 307.132 19.337 306.329 19.4873C307.132 19.337 307.935 19.1987 308.737 19.0732ZM353.408 19.2725C353.301 19.2236 353.193 19.1753 353.085 19.127C353.193 19.1753 353.301 19.2236 353.408 19.2725ZM352.631 18.9238C352.485 18.8593 352.338 18.796 352.191 18.7324C352.338 18.796 352.485 18.8593 352.631 18.9238ZM350.591 18.0586C351.035 18.2399 351.479 18.4244 351.921 18.6143C351.479 18.4244 351.035 18.2399 350.591 18.0586ZM318.433 18.165C317.625 18.1903 316.817 18.2278 316.009 18.2783L317.222 18.2119C317.625 18.193 318.029 18.1777 318.433 18.165ZM321.886 18.1338C323.126 18.1508 324.363 18.1999 325.595 18.2783C324.363 18.1999 323.126 18.1508 321.886 18.1338ZM103.759 15.7422C102.119 16.2327 100.505 16.7765 98.916 17.3721C100.505 16.7765 102.119 16.2327 103.759 15.7422ZM347.278 16.7939C347.936 17.0278 348.591 17.2712 349.243 17.5234C348.346 17.1768 347.445 16.8472 346.539 16.5352L347.278 16.7939ZM345.414 16.1582C345.668 16.2412 345.921 16.3255 346.174 16.4111C345.921 16.3255 345.668 16.2412 345.414 16.1582ZM344.369 15.8232C344.317 15.807 344.265 15.7905 344.213 15.7744C344.265 15.7905 344.317 15.807 344.369 15.8232ZM343.786 15.6445C343.638 15.5998 343.491 15.5546 343.343 15.5107C343.491 15.5546 343.638 15.5998 343.786 15.6445ZM343.143 15.4531C342.95 15.3968 342.758 15.341 342.565 15.2861C342.758 15.341 342.95 15.3968 343.143 15.4531ZM342.15 15.1689C342.055 15.1425 341.96 15.116 341.865 15.0898C341.96 15.116 342.055 15.1425 342.15 15.1689ZM341.337 14.9473C341.228 14.9181 341.118 14.889 341.009 14.8604C341.118 14.889 341.228 14.9181 341.337 14.9473ZM340.666 14.7715C340.518 14.7334 340.37 14.6954 340.222 14.6582C340.37 14.6954 340.518 14.7334 340.666 14.7715ZM339.745 14.541C339.657 14.5195 339.569 14.4978 339.48 14.4766C339.569 14.4978 339.657 14.5195 339.745 14.541ZM338.921 14.3447C338.843 14.3266 338.765 14.308 338.686 14.29C338.765 14.308 338.843 14.3266 338.921 14.3447ZM338.17 14.1738C338.064 14.1504 337.958 14.1265 337.853 14.1035C337.958 14.1265 338.064 14.1504 338.17 14.1738ZM337.337 13.9941C337.249 13.9757 337.161 13.9566 337.073 13.9385C337.161 13.9566 337.249 13.9757 337.337 13.9941ZM112.172 13.7275C112.747 13.6224 113.325 13.5231 113.906 13.4297C113.325 13.5231 112.747 13.6224 112.172 13.7275ZM336.624 13.8477C336.454 13.8135 336.283 13.7801 336.112 13.7471C336.283 13.7801 336.454 13.8135 336.624 13.8477ZM335.925 13.7109C335.716 13.6711 335.506 13.6319 335.297 13.5938C335.506 13.6319 335.716 13.671 335.925 13.7109ZM335.102 13.5586C334.904 13.5231 334.707 13.488 334.509 13.4541C334.707 13.488 334.904 13.5231 335.102 13.5586ZM334.232 13.4072C334.067 13.3794 333.9 13.3529 333.734 13.3262C333.9 13.3529 334.067 13.3794 334.232 13.4072ZM139.882 13.1533V13.1523V13.1533ZM309.131 13.1523C308.697 13.2148 308.262 13.2812 307.828 13.3506C308.697 13.2117 309.565 13.0867 310.434 12.9756L309.131 13.1523ZM333.408 13.2734C333.229 13.2454 333.05 13.2182 332.871 13.1914C333.05 13.2182 333.229 13.2454 333.408 13.2734ZM332.615 13.1533C332.455 13.1299 332.295 13.1074 332.135 13.085C332.295 13.1074 332.455 13.1299 332.615 13.1533ZM331.678 13.0215C331.591 13.0098 331.504 12.9987 331.417 12.9873C331.504 12.9987 331.591 13.0098 331.678 13.0215ZM330.898 12.9209C330.779 12.9061 330.66 12.8921 330.541 12.8779C330.66 12.8921 330.779 12.9061 330.898 12.9209ZM330.06 12.8213C329.947 12.8086 329.834 12.7974 329.722 12.7852C329.834 12.7974 329.947 12.8086 330.06 12.8213ZM136.042 12.6846V12.6836V12.6846ZM313.04 12.6836L313.039 12.6846L313.04 12.6836ZM329.257 12.7354C329.136 12.7229 329.015 12.7111 328.894 12.6992C329.015 12.7111 329.136 12.7229 329.257 12.7354ZM328.406 12.6523C328.314 12.6438 328.221 12.6361 328.128 12.6279C328.221 12.6361 328.314 12.6438 328.406 12.6523ZM327.567 12.5801C327.515 12.5758 327.462 12.5716 327.409 12.5674C327.462 12.5716 327.515 12.5758 327.567 12.5801ZM132.212 12.4033V12.4023V12.4033ZM316.948 12.4023C316.514 12.4232 316.08 12.4478 315.645 12.4756L316.948 12.4033C317.382 12.3825 317.817 12.3645 318.251 12.3506L316.948 12.4023ZM123.746 12.418V12.4189V12.418ZM325.082 12.415C325.015 12.4116 324.948 12.4095 324.881 12.4062C324.948 12.4095 325.015 12.4116 325.082 12.415ZM323.55 12.3525C323.227 12.3422 322.904 12.3338 322.58 12.3271C322.904 12.3338 323.227 12.3422 323.55 12.3525ZM128.39 12.3086C127.45 12.3086 126.517 12.3224 125.591 12.3486C126.517 12.3224 127.45 12.3096 128.39 12.3096V12.3086ZM320.857 12.3086L320.856 12.3096L320.857 12.3086ZM324.247 12.377C324.015 12.3676 323.782 12.36 323.55 12.3525C323.782 12.36 324.015 12.3676 324.247 12.377Z" fill="#20B937"/>
</svg>
