<svg width="53" height="25" viewBox="0 0 53 25" fill="none" xmlns="http://www.w3.org/2000/svg">
<path d="M1.2265 16.9355C0.776191 16.9355 0.456234 16.6965 0.26663 16.2186C0.0888768 15.7407 0 14.9761 0 13.9247C0 12.3716 0.219229 10.8961 0.657688 9.49821C0.76434 9.15173 0.936169 8.90084 1.17317 8.74552C1.42203 8.57826 1.76569 8.49462 2.20414 8.49462C2.44115 8.49462 2.60705 8.52449 2.70185 8.58423C2.79666 8.64397 2.84406 8.75747 2.84406 8.92473C2.84406 9.11589 2.75518 9.546 2.57743 10.2151C2.45892 10.693 2.36412 11.1111 2.29302 11.4695C2.22192 11.828 2.16267 12.27 2.11527 12.7957C2.50633 11.7682 2.94478 10.9319 3.43064 10.2867C3.9165 9.64158 4.39051 9.1816 4.85267 8.90681C5.32668 8.63202 5.75922 8.49462 6.15027 8.49462C6.92054 8.49462 7.30567 8.88292 7.30567 9.6595C7.30567 9.81481 7.25235 10.1912 7.14569 10.7885C7.05089 11.2664 7.00349 11.5651 7.00349 11.6846C7.00349 12.1027 7.15162 12.3118 7.44787 12.3118C7.77968 12.3118 8.20629 12.049 8.7277 11.5233C8.88175 11.368 9.04173 11.2903 9.20763 11.2903C9.36169 11.2903 9.48019 11.362 9.56314 11.5054C9.65794 11.6368 9.70534 11.816 9.70534 12.043C9.70534 12.4851 9.58684 12.8315 9.34984 13.0824C9.01803 13.4289 8.62697 13.7276 8.17666 13.9785C7.73821 14.2174 7.27012 14.3369 6.77241 14.3369C6.14435 14.3369 5.66441 14.1756 5.33261 13.853C5.01265 13.5305 4.85267 13.0944 4.85267 12.5448C4.85267 12.3656 4.87045 12.1864 4.906 12.0072C4.9297 11.7682 4.94155 11.6069 4.94155 11.5233C4.94155 11.3321 4.87637 11.2366 4.74602 11.2366C4.56827 11.2366 4.33126 11.4397 4.03501 11.8459C3.7506 12.2401 3.46619 12.7658 3.18179 13.4229C2.89738 14.08 2.6663 14.773 2.48855 15.5018C2.3582 16.0633 2.20414 16.4456 2.02639 16.6487C1.86049 16.8399 1.59386 16.9355 1.2265 16.9355Z" fill="#333333"/>
<path d="M10.3822 7.31183C9.88449 7.31183 9.5112 7.19833 9.26235 6.97133C9.01349 6.73238 8.88907 6.40382 8.88907 5.98566C8.88907 5.5675 9.04905 5.22103 9.369 4.94624C9.70081 4.6595 10.1096 4.51613 10.5955 4.51613C11.034 4.51613 11.3895 4.62366 11.662 4.83871C11.9346 5.05376 12.0709 5.35842 12.0709 5.75269C12.0709 6.23059 11.9168 6.6129 11.6087 6.89964C11.3006 7.17443 10.8918 7.31183 10.3822 7.31183ZM10.24 16.9355C9.46973 16.9355 8.90684 16.6607 8.55133 16.1111C8.20768 15.5615 8.03585 14.8327 8.03585 13.9247C8.03585 13.3871 8.10103 12.7001 8.23138 11.8638C8.37358 11.0155 8.55133 10.227 8.76464 9.49821C8.87129 9.11589 9.01349 8.85305 9.19125 8.70968C9.369 8.56631 9.65341 8.49462 10.0445 8.49462C10.6488 8.49462 10.951 8.69773 10.951 9.10394C10.951 9.40263 10.8384 10.0956 10.6133 11.1828C10.3289 12.497 10.1867 13.3871 10.1867 13.853C10.1867 14.2115 10.2341 14.4863 10.3289 14.6774C10.4237 14.8686 10.5837 14.9642 10.8088 14.9642C11.0221 14.9642 11.2887 14.8148 11.6087 14.5161C11.9287 14.2174 12.3553 13.7455 12.8885 13.1004C13.0307 12.9331 13.1907 12.8495 13.3685 12.8495C13.5225 12.8495 13.641 12.9211 13.724 13.0645C13.8188 13.2079 13.8662 13.405 13.8662 13.6559C13.8662 14.1338 13.7536 14.5042 13.5284 14.767C12.3553 16.2127 11.2591 16.9355 10.24 16.9355Z" fill="#333333"/>
<path d="M20.9508 12.8495C21.1048 12.8495 21.2233 12.9211 21.3063 13.0645C21.4011 13.2079 21.4485 13.405 21.4485 13.6559C21.4485 14.098 21.3359 14.4683 21.1107 14.767C20.5538 15.4958 19.8605 16.0693 19.031 16.4875C18.2134 16.9056 17.289 17.1147 16.2581 17.1147C15.4522 17.1147 14.7531 16.9952 14.1606 16.7563C13.5681 16.5054 13.1118 16.1708 12.7919 15.7527C12.4838 15.3226 12.3297 14.8447 12.3297 14.319C12.3297 13.5305 12.6437 12.8315 13.2718 12.2222C13.8999 11.6129 14.8005 11.0275 15.9737 10.466L13.0585 10.5376C12.7978 10.5496 12.5963 10.46 12.4541 10.2688C12.3238 10.0657 12.2586 9.82676 12.2586 9.55197C12.2586 9.26523 12.3238 9.01434 12.4541 8.79928C12.5963 8.57228 12.7859 8.45878 13.0229 8.45878C13.5681 8.45878 14.2968 8.5006 15.2093 8.58423C15.3989 8.59618 15.7426 8.62007 16.2403 8.65591C16.7498 8.69176 17.1765 8.70968 17.5201 8.70968C17.6386 8.70968 17.8638 8.66189 18.1956 8.56631C18.2548 8.55436 18.3674 8.52449 18.5333 8.4767C18.7111 8.42891 18.8592 8.40502 18.9777 8.40502C19.1673 8.40502 19.3213 8.48865 19.4399 8.65591C19.5702 8.82318 19.6354 9.08005 19.6354 9.42652C19.6354 9.80884 19.5465 10.1075 19.3687 10.3226C19.191 10.5376 18.9125 10.7288 18.5333 10.8961C17.4549 11.362 16.5602 11.8638 15.8492 12.4014C15.1382 12.9271 14.7827 13.4528 14.7827 13.9785C14.7827 14.313 14.9368 14.5878 15.2449 14.8029C15.553 15.0179 16.0092 15.1254 16.6136 15.1254C17.2772 15.1254 17.9467 14.9582 18.6222 14.6237C19.3095 14.2891 19.9257 13.7814 20.4708 13.1004C20.613 12.9331 20.773 12.8495 20.9508 12.8495Z" fill="#333333"/>
<path d="M28.8663 12.8495C29.0204 12.8495 29.1389 12.9211 29.2219 13.0645C29.3167 13.2079 29.3641 13.405 29.3641 13.6559C29.3641 14.098 29.2515 14.4683 29.0263 14.767C28.4694 15.4958 27.7761 16.0693 26.9466 16.4875C26.1289 16.9056 25.2046 17.1147 24.1737 17.1147C23.3678 17.1147 22.6687 16.9952 22.0762 16.7563C21.4836 16.5054 21.0274 16.1708 20.7075 15.7527C20.3994 15.3226 20.2453 14.8447 20.2453 14.319C20.2453 13.5305 20.5593 12.8315 21.1874 12.2222C21.8155 11.6129 22.7161 11.0275 23.8892 10.466L20.9741 10.5376C20.7134 10.5496 20.5119 10.46 20.3697 10.2688C20.2394 10.0657 20.1742 9.82676 20.1742 9.55197C20.1742 9.26523 20.2394 9.01434 20.3697 8.79928C20.5119 8.57228 20.7015 8.45878 20.9385 8.45878C21.4836 8.45878 22.2124 8.5006 23.1249 8.58423C23.3145 8.59618 23.6582 8.62007 24.1559 8.65591C24.6654 8.69176 25.092 8.70968 25.4357 8.70968C25.5542 8.70968 25.7794 8.66189 26.1112 8.56631C26.1704 8.55436 26.283 8.52449 26.4489 8.4767C26.6267 8.42891 26.7748 8.40502 26.8933 8.40502C27.0829 8.40502 27.2369 8.48865 27.3554 8.65591C27.4858 8.82318 27.551 9.08005 27.551 9.42652C27.551 9.80884 27.4621 10.1075 27.2843 10.3226C27.1066 10.5376 26.8281 10.7288 26.4489 10.8961C25.3705 11.362 24.4758 11.8638 23.7648 12.4014C23.0538 12.9271 22.6983 13.4528 22.6983 13.9785C22.6983 14.313 22.8523 14.5878 23.1605 14.8029C23.4686 15.0179 23.9248 15.1254 24.5292 15.1254C25.1928 15.1254 25.8623 14.9582 26.5378 14.6237C27.2251 14.2891 27.8413 13.7814 28.3864 13.1004C28.5286 12.9331 28.6886 12.8495 28.8663 12.8495Z" fill="#333333"/>
<path d="M38.1862 12.8495C38.3402 12.8495 38.4587 12.9211 38.5417 13.0645C38.6365 13.2079 38.6839 13.405 38.6839 13.6559C38.6839 14.1338 38.5713 14.5042 38.3462 14.767C37.8129 15.4241 37.2737 15.9498 36.7286 16.3441C36.1835 16.7384 35.5377 16.9355 34.7911 16.9355C33.8786 16.9355 33.1439 16.6726 32.5869 16.147C32.03 15.6213 31.7515 14.9223 31.7515 14.0502C31.7515 13.5842 31.9885 13.2497 32.4625 13.0466C32.9839 12.8196 33.3572 12.5806 33.5824 12.3297C33.8075 12.0669 33.9201 11.7503 33.9201 11.3799C33.9201 11.1649 33.8727 11.0036 33.7779 10.8961C33.6949 10.7885 33.5883 10.7348 33.4579 10.7348C33.138 10.7348 32.7825 10.9677 32.3914 11.4337C32.0122 11.8996 31.6567 12.503 31.3249 13.2437C30.9931 13.9725 30.7324 14.7252 30.5428 15.5018C30.4124 16.0633 30.2584 16.4456 30.0806 16.6487C29.9147 16.8399 29.6481 16.9355 29.2807 16.9355C28.9134 16.9355 28.6408 16.8041 28.4631 16.5412C28.2972 16.2664 28.1846 15.8483 28.1253 15.2867C28.0661 14.7252 28.0365 13.9008 28.0365 12.8136C28.0365 10.9737 28.2201 9.05615 28.5875 7.06093C28.9667 5.06571 29.5177 3.39307 30.2406 2.04301C30.9753 0.681004 31.8522 0 32.8714 0C33.4165 0 33.8549 0.238949 34.1867 0.716846C34.5304 1.1828 34.7022 1.79211 34.7022 2.5448C34.7022 3.75149 34.3526 5.00597 33.6535 6.30824C32.9543 7.59857 31.8167 9.10992 30.2406 10.8423C30.2051 11.4636 30.1873 12.1027 30.1873 12.7599C30.7561 11.2664 31.4078 10.1852 32.1426 9.51613C32.8773 8.83513 33.5646 8.49462 34.2045 8.49462C34.797 8.49462 35.271 8.69773 35.6265 9.10394C35.9939 9.51016 36.1776 10.0119 36.1776 10.6093C36.1776 11.2664 36.0117 11.8698 35.6799 12.4194C35.3481 12.9689 34.7792 13.4588 33.9734 13.8889C34.0208 14.2115 34.163 14.4743 34.4 14.6774C34.6489 14.8686 34.9451 14.9642 35.2888 14.9642C35.6562 14.9642 36.0117 14.8208 36.3553 14.5341C36.699 14.2473 37.1493 13.7694 37.7063 13.1004C37.8485 12.9331 38.0084 12.8495 38.1862 12.8495ZM32.4981 1.77419C32.2848 1.77419 32.0478 2.08483 31.7871 2.70609C31.5264 3.31541 31.2716 4.14576 31.0227 5.19713C30.7857 6.23656 30.5902 7.37157 30.4361 8.60215C31.1708 7.72999 31.7752 6.78017 32.2492 5.75269C32.7351 4.72521 32.978 3.79331 32.978 2.95699C32.978 2.57467 32.9365 2.28196 32.8536 2.07885C32.7706 1.87575 32.6521 1.77419 32.4981 1.77419Z" fill="#333333"/>
<path d="M39.5796 7.31183C39.0819 7.31183 38.7086 7.19833 38.4598 6.97133C38.2109 6.73238 38.0865 6.40382 38.0865 5.98566C38.0865 5.5675 38.2465 5.22103 38.5664 4.94624C38.8982 4.6595 39.3071 4.51613 39.7929 4.51613C40.2314 4.51613 40.5869 4.62366 40.8594 4.83871C41.132 5.05376 41.2683 5.35842 41.2683 5.75269C41.2683 6.23059 41.1142 6.6129 40.8061 6.89964C40.498 7.17443 40.0892 7.31183 39.5796 7.31183ZM39.4374 16.9355C38.6671 16.9355 38.1043 16.6607 37.7487 16.1111C37.4051 15.5615 37.2333 14.8327 37.2333 13.9247C37.2333 13.3871 37.2984 12.7001 37.4288 11.8638C37.571 11.0155 37.7487 10.227 37.962 9.49821C38.0687 9.11589 38.2109 8.85305 38.3887 8.70968C38.5664 8.56631 38.8508 8.49462 39.2419 8.49462C39.8462 8.49462 40.1484 8.69773 40.1484 9.10394C40.1484 9.40263 40.0358 10.0956 39.8107 11.1828C39.5263 12.497 39.3841 13.3871 39.3841 13.853C39.3841 14.2115 39.4315 14.4863 39.5263 14.6774C39.6211 14.8686 39.7811 14.9642 40.0062 14.9642C40.2195 14.9642 40.4861 14.8148 40.8061 14.5161C41.1261 14.2174 41.5527 13.7455 42.0859 13.1004C42.2281 12.9331 42.3881 12.8495 42.5659 12.8495C42.7199 12.8495 42.8384 12.9211 42.9214 13.0645C43.0162 13.2079 43.0636 13.405 43.0636 13.6559C43.0636 14.1338 42.951 14.5042 42.7258 14.767C41.5527 16.2127 40.4565 16.9355 39.4374 16.9355Z" fill="#333333"/>
<path d="M43.5274 7.31183C43.0297 7.31183 42.6564 7.19833 42.4076 6.97133C42.1587 6.73238 42.0343 6.40382 42.0343 5.98566C42.0343 5.5675 42.1943 5.22103 42.5142 4.94624C42.846 4.6595 43.2548 4.51613 43.7407 4.51613C44.1792 4.51613 44.5347 4.62366 44.8072 4.83871C45.0798 5.05376 45.2161 5.35842 45.2161 5.75269C45.2161 6.23059 45.062 6.6129 44.7539 6.89964C44.4458 7.17443 44.037 7.31183 43.5274 7.31183ZM46.727 12.8853C46.881 12.8853 46.9995 12.963 47.0825 13.1183C47.1773 13.2616 47.2247 13.4468 47.2247 13.6738C47.2247 13.9486 47.1832 14.1637 47.1002 14.319C47.0173 14.4743 46.8869 14.6117 46.7092 14.7312C45.8797 15.2808 44.7717 16.0394 43.3852 17.0072C42.923 19.4922 42.3246 21.4456 41.5899 22.8674C40.8552 24.2891 39.919 25 38.7814 25C38.1652 25 37.6734 24.8088 37.306 24.4265C36.9268 24.0562 36.7372 23.5663 36.7372 22.957C36.7372 22.1087 37.0631 21.2007 37.7149 20.233C38.3666 19.2772 39.5931 18.0944 41.3944 16.6846L41.5188 15.7706C41.6847 14.6237 41.815 13.4946 41.9098 12.3835C41.9809 11.7384 42.0935 10.7766 42.2476 9.49821C42.295 9.15173 42.4253 8.90084 42.6386 8.74552C42.8519 8.57826 43.1778 8.49462 43.6163 8.49462C43.9718 8.49462 44.2029 8.54839 44.3095 8.65591C44.428 8.76344 44.4873 8.91278 44.4873 9.10394C44.4873 9.65352 44.2917 11.1708 43.9007 13.6559L43.7229 14.8925C44.6709 14.1756 45.536 13.5544 46.3181 13.0287C46.4722 12.9331 46.6085 12.8853 46.727 12.8853ZM38.9769 23.2616C39.285 23.2616 39.6227 22.9092 39.9901 22.2043C40.3575 21.4994 40.7011 20.3644 41.0211 18.7993C40.1205 19.5759 39.4746 20.2748 39.0836 20.8961C38.6807 21.5293 38.4792 22.0848 38.4792 22.5627C38.4792 23.0287 38.6451 23.2616 38.9769 23.2616Z" fill="#333333"/>
<path d="M49.1427 16.9355C48.4436 16.9355 47.8451 16.7622 47.3474 16.4158C46.8616 16.0573 46.4942 15.5914 46.2454 15.0179C45.9965 14.4444 45.8721 13.8292 45.8721 13.172C45.8721 12.264 46.038 11.4576 46.3698 10.7527C46.7134 10.0358 47.1756 9.48029 47.7563 9.08602C48.3369 8.67981 48.9887 8.4767 49.7116 8.4767C50.4107 8.4767 51.0092 8.65591 51.5069 9.01434C52.0046 9.36081 52.3779 9.82079 52.6267 10.3943C52.8756 10.9677 53 11.583 53 12.2401C53 13.1481 52.8282 13.9606 52.4845 14.6774C52.1409 15.3823 51.6728 15.9379 51.0803 16.3441C50.4996 16.7384 49.8538 16.9355 49.1427 16.9355ZM49.3383 15C49.7412 15 50.0789 14.779 50.3515 14.3369C50.6359 13.8949 50.7781 13.2497 50.7781 12.4014C50.7781 11.7443 50.6596 11.2485 50.4226 10.914C50.1856 10.5795 49.9012 10.4122 49.5694 10.4122C49.1427 10.4122 48.7872 10.6332 48.5028 11.0753C48.2303 11.5054 48.094 12.1505 48.094 13.0108C48.094 13.6918 48.2125 14.1935 48.4495 14.5161C48.6865 14.8387 48.9828 15 49.3383 15Z" fill="#333333"/>
</svg>
